<svg width="20" height="22" viewBox="0 0 20 22" fill="none" xmlns="http://www.w3.org/2000/svg">
<path id="Icon" d="M19 9.00011H1M14 1.00011V5.00011M6 1.00011V5.00011M5.8 21.0001H14.2C15.8802 21.0001 16.7202 21.0001 17.362 20.6731C17.9265 20.3855 18.3854 19.9266 18.673 19.3621C19 18.7204 19 17.8803 19 16.2001V7.80011C19 6.11996 19 5.27988 18.673 4.63814C18.3854 4.07366 17.9265 3.61471 17.362 3.32709C16.7202 3.00011 15.8802 3.00011 14.2 3.00011H5.8C4.11984 3.00011 3.27976 3.00011 2.63803 3.32709C2.07354 3.61471 1.6146 4.07366 1.32698 4.63814C1 5.27988 1 6.11996 1 7.80011V16.2001C1 17.8803 1 18.7204 1.32698 19.3621C1.6146 19.9266 2.07354 20.3855 2.63803 20.6731C3.27976 21.0001 4.11984 21.0001 5.8 21.0001Z" stroke="#707684" stroke-width="2" stroke-linecap="round" stroke-linejoin="round"/>
</svg>
