<svg width="18" height="20" viewBox="0 0 18 20" fill="none" xmlns="http://www.w3.org/2000/svg">
<g id="Icon">
<path d="M7 16.0001V4.00006C7 3.06818 7 2.60224 6.84776 2.23469C6.64477 1.74464 6.25542 1.35529 5.76537 1.1523C5.39782 1.00006 4.93188 1.00006 4 1.00006C3.06812 1.00006 2.60218 1.00006 2.23463 1.1523C1.74458 1.35529 1.35523 1.74464 1.15224 2.23469C1 2.60224 1 3.06818 1 4.00006V16.0001C1 16.9319 1 17.3979 1.15224 17.7654C1.35523 18.2555 1.74458 18.6448 2.23463 18.8478C2.60218 19.0001 3.06812 19.0001 4 19.0001C4.93188 19.0001 5.39782 19.0001 5.76537 18.8478C6.25542 18.6448 6.64477 18.2555 6.84776 17.7654C7 17.3979 7 16.9319 7 16.0001Z" stroke="#707684" stroke-width="2" stroke-linecap="round" stroke-linejoin="round"/>
<path d="M17 12.0001V4.00006C17 3.06818 17 2.60224 16.8478 2.23469C16.6448 1.74464 16.2554 1.35529 15.7654 1.1523C15.3978 1.00006 14.9319 1.00006 14 1.00006C13.0681 1.00006 12.6022 1.00006 12.2346 1.1523C11.7446 1.35529 11.3552 1.74464 11.1522 2.23469C11 2.60224 11 3.06818 11 4.00006V12.0001C11 12.9319 11 13.3979 11.1522 13.7654C11.3552 14.2555 11.7446 14.6448 12.2346 14.8478C12.6022 15.0001 13.0681 15.0001 14 15.0001C14.9319 15.0001 15.3978 15.0001 15.7654 14.8478C16.2554 14.6448 16.6448 14.2555 16.8478 13.7654C17 13.3979 17 12.9319 17 12.0001Z" stroke="#707684" stroke-width="2" stroke-linecap="round" stroke-linejoin="round"/>
</g>
</svg>
