<svg width="18" height="18" viewBox="0 0 18 18" fill="none" xmlns="http://www.w3.org/2000/svg">
<path d="M15.75 15.7502H9.75002M1.875 16.1252L6.03695 14.5245C6.30316 14.4221 6.43626 14.3709 6.56079 14.3041C6.6714 14.2447 6.77685 14.1761 6.87603 14.0992C6.98769 14.0125 7.08853 13.9117 7.29021 13.71L15.75 5.25023C16.5784 4.4218 16.5784 3.07865 15.75 2.25023C14.9216 1.4218 13.5784 1.4218 12.75 2.25022L4.29021 10.71C4.08853 10.9117 3.98769 11.0125 3.90104 11.1242C3.82408 11.2234 3.75555 11.3288 3.69618 11.4394C3.62933 11.564 3.57814 11.6971 3.47575 11.9633L1.875 16.1252ZM1.875 16.1252L3.41859 12.1119C3.52905 11.8248 3.58428 11.6812 3.67901 11.6154C3.76179 11.5579 3.86423 11.5362 3.96322 11.5551C4.0765 11.5767 4.18529 11.6855 4.40286 11.9031L6.09718 13.5974C6.31475 13.815 6.42354 13.9237 6.44517 14.037C6.46408 14.136 6.44234 14.2385 6.38486 14.3212C6.31908 14.416 6.17549 14.4712 5.8883 14.5817L1.875 16.1252Z" stroke="#1A1C1F" stroke-width="2" stroke-linecap="round" stroke-linejoin="round"/>
</svg>
